<svg id="Layer_1" xmlns="http://www.w3.org/2000/svg" viewBox="0 0 400 400"><style>.st0{fill:#2dc4ee}.st1{fill:url(#SVGID_1_)}.st2{fill:#101010}</style><path class="st0" d="M343.8 358.1H68.4c-14.6 0-26.5-11.9-26.5-26.5V177c0-14.6 11.9-26.5 26.5-26.5h275.4c14.6 0 26.5 11.9 26.5 26.5v154.5c0 14.6-11.9 26.6-26.5 26.6z"/><radialGradient id="SVGID_1_" cx="202.674" cy="135.594" r="172.498" gradientUnits="userSpaceOnUse"><stop offset="0" stop-color="#FFF33B"/><stop offset=".059" stop-color="#FFE029"/><stop offset=".13" stop-color="#FFD218"/><stop offset=".203" stop-color="#FEC90F"/><stop offset=".281" stop-color="#FDC70C"/><stop offset=".668" stop-color="#F3903F"/><stop offset=".888" stop-color="#ED683C"/><stop offset="1" stop-color="#E93E3A"/></radialGradient><circle class="st1" cx="223.5" cy="183.2" r="120.3"/><ellipse class="st2" cx="175.6" cy="149.2" rx="11.2" ry="18.4"/><ellipse class="st2" cx="270.3" cy="149.2" rx="11.2" ry="18.4"/><path class="st2" d="M296.7 237.7H156.1c-2.8 0-5.1-2.3-5.1-5.1s2.3-5.1 5.1-5.1h140.6c2.8 0 5.1 2.3 5.1 5.1s-2.3 5.1-5.1 5.1z"/></svg>